<svg width="22" height="22" viewBox="0 0 22 22" fill="none" xmlns="http://www.w3.org/2000/svg">
<path fill-rule="evenodd" clip-rule="evenodd" d="M0 1.15625C0 0.965626 0.0757252 0.782809 0.210517 0.648017C0.345309 0.513225 0.528126 0.4375 0.71875 0.4375H2.875C3.03533 0.437544 3.19103 0.491192 3.31736 0.589911C3.44369 0.68863 3.53339 0.826752 3.57219 0.982312L4.15437 3.3125H20.8437C20.95 3.31256 21.055 3.3362 21.1511 3.38172C21.2471 3.42723 21.3319 3.49348 21.3993 3.57571C21.4666 3.65793 21.5149 3.75407 21.5407 3.8572C21.5664 3.96033 21.569 4.06789 21.5481 4.17213L20.1106 11.3596C20.0792 11.5164 19.9964 11.6581 19.8753 11.7625C19.7543 11.8669 19.6018 11.928 19.4422 11.9361L5.934 12.6146L6.34656 14.8125H18.6875C18.8781 14.8125 19.0609 14.8882 19.1957 15.023C19.3305 15.1578 19.4062 15.3406 19.4062 15.5312C19.4062 15.7219 19.3305 15.9047 19.1957 16.0395C19.0609 16.1743 18.8781 16.25 18.6875 16.25H5.75C5.58243 16.2498 5.42019 16.1911 5.29131 16.0841C5.16243 15.977 5.07502 15.8282 5.04419 15.6635L2.88937 4.18506L2.31437 1.875H0.71875C0.528126 1.875 0.345309 1.79927 0.210517 1.66448C0.0757252 1.52969 0 1.34687 0 1.15625ZM4.45912 4.75L5.66662 11.1886L18.8111 10.5288L19.9669 4.75H4.45912ZM7.1875 16.25C6.425 16.25 5.69373 16.5529 5.15457 17.0921C4.6154 17.6312 4.3125 18.3625 4.3125 19.125C4.3125 19.8875 4.6154 20.6188 5.15457 21.1579C5.69373 21.6971 6.425 22 7.1875 22C7.95 22 8.68126 21.6971 9.22043 21.1579C9.7596 20.6188 10.0625 19.8875 10.0625 19.125C10.0625 18.3625 9.7596 17.6312 9.22043 17.0921C8.68126 16.5529 7.95 16.25 7.1875 16.25ZM17.25 16.25C16.4875 16.25 15.7562 16.5529 15.2171 17.0921C14.6779 17.6312 14.375 18.3625 14.375 19.125C14.375 19.8875 14.6779 20.6188 15.2171 21.1579C15.7562 21.6971 16.4875 22 17.25 22C18.0125 22 18.7438 21.6971 19.2829 21.1579C19.8221 20.6188 20.125 19.8875 20.125 19.125C20.125 18.3625 19.8221 17.6312 19.2829 17.0921C18.7438 16.5529 18.0125 16.25 17.25 16.25ZM7.1875 17.6875C6.80625 17.6875 6.44062 17.839 6.17103 18.1085C5.90145 18.3781 5.75 18.7438 5.75 19.125C5.75 19.5062 5.90145 19.8719 6.17103 20.1415C6.44062 20.411 6.80625 20.5625 7.1875 20.5625C7.56875 20.5625 7.93438 20.411 8.20397 20.1415C8.47355 19.8719 8.625 19.5062 8.625 19.125C8.625 18.7438 8.47355 18.3781 8.20397 18.1085C7.93438 17.839 7.56875 17.6875 7.1875 17.6875ZM17.25 17.6875C16.8687 17.6875 16.5031 17.839 16.2335 18.1085C15.9639 18.3781 15.8125 18.7438 15.8125 19.125C15.8125 19.5062 15.9639 19.8719 16.2335 20.1415C16.5031 20.411 16.8687 20.5625 17.25 20.5625C17.6312 20.5625 17.9969 20.411 18.2665 20.1415C18.536 19.8719 18.6875 19.5062 18.6875 19.125C18.6875 18.7438 18.536 18.3781 18.2665 18.1085C17.9969 17.839 17.6312 17.6875 17.25 17.6875Z" fill="#272727"/>
</svg>
